<?xml version="1.0" encoding="UTF-8" standalone="no"?><!DOCTYPE svg PUBLIC "-//W3C//DTD SVG 1.1//EN" "http://www.w3.org/Graphics/SVG/1.1/DTD/svg11.dtd"><!-- Generated by graphviz version 2.40.1 (20161225.0304)
 --><!-- Title: G Pages: 1 --><svg xmlns="http://www.w3.org/2000/svg" xmlns:xlink="http://www.w3.org/1999/xlink" width="767pt" height="255pt" viewBox="0.00 0.00 767.45 255.20">
<g id="graph0" class="graph" transform="scale(1 1) rotate(0) translate(4 251.2)">
<title>G</title>
<polygon fill="#ffffff" stroke="transparent" points="-4,4 -4,-251.2 763.4522,-251.2 763.4522,4 -4,4"/>
<!-- camera_link -->
<g id="node1" class="node">
<title>camera_link</title>
<ellipse fill="none" stroke="#000000" cx="324.6481" cy="-229.2" rx="58.5271" ry="18"/>
<text text-anchor="middle" x="324.6481" y="-225" font-family="Times,serif" font-size="14.00" fill="#000000">camera_link</text>
</g>
<!-- camera_depth_frame -->
<g id="node2" class="node">
<title>camera_depth_frame</title>
<ellipse fill="none" stroke="#000000" cx="123.6481" cy="-123.6" rx="92.5765" ry="18"/>
<text text-anchor="middle" x="123.6481" y="-119.4" font-family="Times,serif" font-size="14.00" fill="#000000">camera_depth_frame</text>
</g>
<!-- camera_link&#45;&gt;camera_depth_frame -->
<g id="edge1" class="edge">
<title>camera_link-&gt;camera_depth_frame</title>
<path fill="none" stroke="#000000" d="M269.9811,-222.4485C243.363,-217.3526 211.7488,-208.4981 186.5421,-193.2 168.619,-182.3224 152.8174,-164.7846 141.5359,-150.0356"/>
<polygon fill="#000000" stroke="#000000" points="144.1806,-147.7244 135.4341,-141.7454 138.5431,-151.8738 144.1806,-147.7244"/>
<text text-anchor="middle" x="253.7011" y="-180.6" font-family="Times,serif" font-size="14.00" fill="#000000">['0.00', '-0.00', '-0.00']</text>
<text text-anchor="middle" x="253.7011" y="-163.8" font-family="Times,serif" font-size="14.00" fill="#000000">['0.00', '0.00', '0.00']</text>
</g>
<!-- camera_color_frame -->
<g id="node4" class="node">
<title>camera_color_frame</title>
<ellipse fill="none" stroke="#000000" cx="324.6481" cy="-123.6" rx="90.8492" ry="18"/>
<text text-anchor="middle" x="324.6481" y="-119.4" font-family="Times,serif" font-size="14.00" fill="#000000">camera_color_frame</text>
</g>
<!-- camera_link&#45;&gt;camera_color_frame -->
<g id="edge3" class="edge">
<title>camera_link-&gt;camera_color_frame</title>
<path fill="none" stroke="#000000" d="M324.6481,-210.8059C324.6481,-194.5279 324.6481,-170.5223 324.6481,-151.8163"/>
<polygon fill="#000000" stroke="#000000" points="328.1482,-151.7833 324.6481,-141.7833 321.1482,-151.7834 328.1482,-151.7833"/>
<text text-anchor="middle" x="389.3708" y="-180.6" font-family="Times,serif" font-size="14.00" fill="#000000">['-0.00', '0.01', '0.00']</text>
<text text-anchor="middle" x="389.3708" y="-163.8" font-family="Times,serif" font-size="14.00" fill="#000000">['0.35', '-0.20', '0.34']</text>
</g>
<!-- camera_aligned_depth_to_color_frame -->
<g id="node5" class="node">
<title>camera_aligned_depth_to_color_frame</title>
<ellipse fill="none" stroke="#000000" cx="596.6481" cy="-123.6" rx="162.6084" ry="18"/>
<text text-anchor="middle" x="596.6481" y="-119.4" font-family="Times,serif" font-size="14.00" fill="#000000">camera_aligned_depth_to_color_frame</text>
</g>
<!-- camera_link&#45;&gt;camera_aligned_depth_to_color_frame -->
<g id="edge5" class="edge">
<title>camera_link-&gt;camera_aligned_depth_to_color_frame</title>
<path fill="none" stroke="#000000" d="M372.4691,-218.7101C398.1203,-212.4738 430.044,-203.7254 457.6481,-193.2 492.1985,-180.0259 529.5813,-161.0171 556.8681,-146.1927"/>
<polygon fill="#000000" stroke="#000000" points="558.6312,-149.2176 565.7161,-141.3402 555.2651,-143.08 558.6312,-149.2176"/>
<text text-anchor="middle" x="596.3708" y="-180.6" font-family="Times,serif" font-size="14.00" fill="#000000">['-0.00', '0.01', '0.00']</text>
<text text-anchor="middle" x="596.3708" y="-163.8" font-family="Times,serif" font-size="14.00" fill="#000000">['0.35', '-0.20', '0.34']</text>
</g>
<!-- camera_depth_optical_frame -->
<g id="node3" class="node">
<title>camera_depth_optical_frame</title>
<ellipse fill="none" stroke="#000000" cx="123.6481" cy="-18" rx="123.7963" ry="18"/>
<text text-anchor="middle" x="123.6481" y="-13.8" font-family="Times,serif" font-size="14.00" fill="#000000">camera_depth_optical_frame</text>
</g>
<!-- camera_depth_frame&#45;&gt;camera_depth_optical_frame -->
<g id="edge2" class="edge">
<title>camera_depth_frame-&gt;camera_depth_optical_frame</title>
<path fill="none" stroke="#000000" d="M123.6481,-105.2059C123.6481,-88.9279 123.6481,-64.9223 123.6481,-46.2163"/>
<polygon fill="#000000" stroke="#000000" points="127.1482,-46.1833 123.6481,-36.1833 120.1482,-46.1834 127.1482,-46.1833"/>
<text text-anchor="middle" x="197.7011" y="-75" font-family="Times,serif" font-size="14.00" fill="#000000">['0.00', '-0.00', '-0.00']</text>
<text text-anchor="middle" x="197.7011" y="-58.2" font-family="Times,serif" font-size="14.00" fill="#000000">['-90.00', '0.00', '-90.00']</text>
</g>
<!-- camera_color_optical_frame -->
<g id="node6" class="node">
<title>camera_color_optical_frame</title>
<ellipse fill="none" stroke="#000000" cx="596.6481" cy="-18" rx="122.0688" ry="18"/>
<text text-anchor="middle" x="596.6481" y="-13.8" font-family="Times,serif" font-size="14.00" fill="#000000">camera_color_optical_frame</text>
</g>
<!-- camera_aligned_depth_to_color_frame&#45;&gt;camera_color_optical_frame -->
<g id="edge4" class="edge">
<title>camera_aligned_depth_to_color_frame-&gt;camera_color_optical_frame</title>
<path fill="none" stroke="#000000" d="M596.6481,-105.2059C596.6481,-88.9279 596.6481,-64.9223 596.6481,-46.2163"/>
<polygon fill="#000000" stroke="#000000" points="600.1482,-46.1833 596.6481,-36.1833 593.1482,-46.1834 600.1482,-46.1833"/>
<text text-anchor="middle" x="670.7011" y="-75" font-family="Times,serif" font-size="14.00" fill="#000000">['0.00', '-0.00', '-0.00']</text>
<text text-anchor="middle" x="670.7011" y="-58.2" font-family="Times,serif" font-size="14.00" fill="#000000">['-90.00', '0.00', '-90.00']</text>
</g>
</g>
</svg>